<svg width="149" height="45" viewBox="0 0 149 45" fill="none" xmlns="http://www.w3.org/2000/svg">
<rect x="1" y="1" width="43" height="43" rx="21.5" fill="#C4956A"/>
<rect x="1" y="1" width="43" height="43" rx="21.5" stroke="#0A0A0A" stroke-width="2"/>
<path d="M22.26 17.2V18.908H19.264V27H17.556V18.908H14.56V17.2H22.26ZM30.8194 27H28.5934L25.8424 23.157L25.3664 23.724V27H23.6584V17.2H25.3664V21.071L28.6074 17.2H30.8404L26.9554 21.82L30.8194 27Z" fill="#0A0A0A"/>
<rect x="27" y="1" width="43" height="43" rx="21.5" fill="#7B8A6E"/>
<rect x="27" y="1" width="43" height="43" rx="21.5" stroke="#0A0A0A" stroke-width="2"/>
<path d="M43.116 17.2H45.083L48.646 27H46.833L46.203 25.264H42.003L41.373 27H39.56L43.116 17.2ZM42.626 23.556H45.573L44.096 19.517L42.626 23.556ZM49.8205 27V17.2H53.3905C53.9085 17.2 54.3751 17.3073 54.7905 17.522C55.2105 17.732 55.5418 18.0353 55.7845 18.432C56.0318 18.824 56.1555 19.2883 56.1555 19.825C56.1555 20.063 56.1205 20.3033 56.0505 20.546C55.9805 20.7887 55.8731 21.008 55.7285 21.204C55.5838 21.3953 55.3971 21.5377 55.1685 21.631C55.4718 21.7057 55.7191 21.841 55.9105 22.037C56.1018 22.233 56.2511 22.464 56.3585 22.73C56.4658 22.9913 56.5381 23.2597 56.5755 23.535C56.6175 23.8057 56.6385 24.0577 56.6385 24.291C56.6385 24.809 56.5101 25.271 56.2535 25.677C55.9968 26.083 55.6515 26.405 55.2175 26.643C54.7881 26.881 54.3121 27 53.7895 27H49.8205ZM51.5285 25.537H53.6145C53.8945 25.537 54.1465 25.4693 54.3705 25.334C54.5945 25.1987 54.7741 25.012 54.9095 24.774C55.0448 24.536 55.1125 24.2653 55.1125 23.962C55.1125 23.7007 55.0448 23.4533 54.9095 23.22C54.7741 22.9867 54.5945 22.7977 54.3705 22.653C54.1465 22.5083 53.8945 22.436 53.6145 22.436H51.5285V25.537ZM51.5285 20.994H53.1945C53.5398 20.994 53.8338 20.8867 54.0765 20.672C54.3238 20.4573 54.4475 20.1727 54.4475 19.818C54.4475 19.44 54.3238 19.1553 54.0765 18.964C53.8338 18.768 53.5398 18.67 53.1945 18.67H51.5285V20.994Z" fill="#0A0A0A"/>
<rect x="53" y="1" width="43" height="43" rx="21.5" fill="#8B7E9B"/>
<rect x="53" y="1" width="43" height="43" rx="21.5" stroke="#0A0A0A" stroke-width="2"/>
<path d="M70.376 27.182C69.7133 27.182 69.0903 27.0513 68.507 26.79C67.9237 26.524 67.4103 26.1577 66.967 25.691C66.5283 25.2243 66.183 24.6853 65.931 24.074C65.6837 23.458 65.56 22.8 65.56 22.1C65.56 21.3953 65.6837 20.7373 65.931 20.126C66.183 19.51 66.5283 18.971 66.967 18.509C67.4103 18.0423 67.9237 17.6783 68.507 17.417C69.0903 17.151 69.7133 17.018 70.376 17.018C71.1693 17.018 71.8997 17.2023 72.567 17.571C73.2343 17.935 73.7873 18.4227 74.226 19.034L72.7 19.853C72.4247 19.5123 72.0817 19.2393 71.671 19.034C71.265 18.8287 70.8333 18.726 70.376 18.726C69.9467 18.726 69.543 18.8147 69.165 18.992C68.787 19.1647 68.4557 19.4073 68.171 19.72C67.8863 20.028 67.6647 20.3873 67.506 20.798C67.3473 21.204 67.268 21.638 67.268 22.1C67.268 22.5667 67.3473 23.003 67.506 23.409C67.6693 23.815 67.8933 24.1743 68.178 24.487C68.4627 24.795 68.7917 25.0377 69.165 25.215C69.543 25.3877 69.9467 25.474 70.376 25.474C70.8427 25.474 71.2767 25.3713 71.678 25.166C72.084 24.956 72.4247 24.6807 72.7 24.34L74.226 25.166C73.7873 25.7727 73.2343 26.2603 72.567 26.629C71.8997 26.9977 71.1693 27.182 70.376 27.182ZM81.315 17.2H83.023V27H81.315V22.604H77.255V27H75.547V17.2H77.255V20.896H81.315V17.2Z" fill="#0A0A0A"/>
<rect x="79" y="1" width="43" height="43" rx="21.5" fill="#6A8EC4"/>
<rect x="79" y="1" width="43" height="43" rx="21.5" stroke="#0A0A0A" stroke-width="2"/>
<path d="M96.05 27V17.2H97.758V27H96.05ZM99.6545 27V17.2H105.443V18.908H101.362V20.896H104.771V22.604H101.362V27H99.6545Z" fill="#0A0A0A"/>
<rect x="105" y="1" width="43" height="43" rx="21.5" fill="#C8E636"/>
<rect x="105" y="1" width="43" height="43" rx="21.5" stroke="#0A0A0A" stroke-width="2"/>
<path d="M125.664 27.2V24.176H122.64V22.224H125.664V19.2H127.616V22.224H130.64V24.176H127.616V27.2H125.664Z" fill="#0A0A0A"/>
</svg>
